<?xml version="1.0" encoding="utf-8"?>
<!-- Generator: Adobe Illustrator 16.0.0, SVG Export Plug-In . SVG Version: 6.00 Build 0)  -->
<!DOCTYPE svg PUBLIC "-//W3C//DTD SVG 1.1//EN" "http://www.w3.org/Graphics/SVG/1.1/DTD/svg11.dtd">
<svg version="1.1" id="Layer_1" xmlns="http://www.w3.org/2000/svg" xmlns:xlink="http://www.w3.org/1999/xlink" x="0px" y="0px"
	 width="532.271px" height="169.213px" viewBox="0 0 532.271 169.213"
	 xml:space="preserve">
<g>
		<path fill="#4C4451" d="M0.679,113.792V-0.001h25.188L69.27,76.608h0.319L67.666-0.001h22.438v113.793H67.803L22.635,34.886
			h-0.642l1.122,78.906H0.679L0.679,113.792z"/>
		<path fill="#4C4451" d="M121.76,82.376c0.645,10.094,10.74,14.906,22.118,14.906c8.333,0,15.062-1.121,21.636-3.365l3.205,16.504
			c-8.01,3.365-17.792,4.969-28.368,4.969c-26.604,0-41.83-15.383-41.83-39.904c0-19.869,12.346-41.826,39.587-41.826
			c25.323,0,34.938,19.711,34.938,39.104c0,4.166-0.479,7.854-0.802,9.615L121.76,82.376L121.76,82.376z M150.451,65.708
			c0-5.928-2.566-15.865-13.785-15.865c-10.257,0-14.423,9.455-15.066,15.865H150.451z"/>
		<path fill="#4C4451" d="M231.355-0.001h24.359v44.713h0.319c4.648-6.729,12.821-11.057,23.719-11.057
			c18.748,0,32.375,15.545,32.213,39.584c0,28.209-17.789,42.312-35.738,42.312c-9.135,0-18.109-3.363-23.559-12.664h-0.317
			l-0.967,10.896h-20.67c0.319-5.125,0.641-14.58,0.641-23.396V-0.001z M255.714,80.452c0,1.604,0.16,3.045,0.482,4.33
			c1.601,6.41,7.212,11.535,14.259,11.535c10.42,0,16.828-8.016,16.828-22.111c0-12.182-5.451-21.799-16.828-21.799
			c-6.572,0-12.659,4.969-14.259,12.021c-0.323,1.443-0.482,2.887-0.482,4.486V80.452z"/>
		<path fill="#4C4451" d="M396.544,73.722c0,28.688-20.355,41.83-41.346,41.83c-22.92,0-40.553-15.066-40.553-40.389
			c0-25.48,16.674-41.666,41.99-41.666C380.518,33.497,396.544,50.003,396.544,73.722z M339.809,74.526
			c0,13.459,5.607,23.559,16.027,23.559c9.617,0,15.545-9.455,15.545-23.723c0-11.535-4.484-23.396-15.545-23.396
			C344.294,50.966,339.809,62.983,339.809,74.526z"/>
		<path fill="#4C4451" d="M476.958,88.628c0,10.258,0.324,18.59,0.646,25.156h-21.16l-1.121-11.059h-0.479
			c-3.045,4.812-10.42,12.824-24.521,12.824c-16.027,0-27.562-9.938-27.562-34.135V35.417h24.359v42.15
			c0,11.377,3.686,18.27,12.338,18.27c6.729,0,10.74-4.646,12.18-8.496c0.643-1.439,0.969-3.205,0.969-5.289V35.417h24.354
			L476.958,88.628L476.958,88.628z"/>
		<path fill="#4C4451" d="M224.63,53.368V35.421h-51.767v17.947h10.42v32.053c0,11.061,2.243,18.59,6.729,23.24
			c4.009,4.004,10.576,6.729,18.432,6.729c6.731,0,12.66-0.959,15.705-2.08l-0.16-18.436c-2.243,0.482-3.844,0.641-7.212,0.641
			c-7.212,0-9.615-4.322-9.615-13.777V53.368H224.63z"/>
		<path fill="#4C4451" d="M532.95,53.368V35.421h-51.766v17.947h10.42v32.053c0,11.061,2.24,18.59,6.729,23.24
			c4.004,4.004,10.576,6.729,18.428,6.729c6.734,0,12.662-0.959,15.707-2.08l-0.162-18.436c-2.242,0.482-3.842,0.641-7.213,0.641
			c-7.211,0-9.609-4.322-9.609-13.777V53.368H532.95z"/>
		<rect x="0.679" y="136.575" fill="#DBDBD8" width="223.47" height="31.938"/>
		<path fill="#DBDBD8" d="M233.565,123.483h5.517v19.279h0.13c1.963-3.424,5.519-5.58,10.462-5.58
			c7.675,0,13.002,6.344,13.002,15.604c0,10.971-6.977,16.426-13.825,16.426c-4.44,0-7.991-1.713-10.336-5.709h-0.131
			l-0.314,5.012h-4.757c0.127-2.094,0.254-5.199,0.254-7.93L233.565,123.483L233.565,123.483z M239.079,156.208
			c0,0.697,0.065,1.396,0.254,2.027c1.019,3.871,4.313,6.535,8.373,6.535c5.901,0,9.324-4.756,9.324-11.799
			c0-6.15-3.172-11.418-9.197-11.418c-3.739,0-7.293,2.668-8.435,6.855c-0.189,0.697-0.319,1.457-0.319,2.344V156.208z"/>
		<path fill="#DBDBD8" d="M271.596,154.181c0.123,7.545,4.885,10.654,10.523,10.654c3.998,0,6.469-0.697,8.504-1.584l1.01,3.994
			c-1.963,0.889-5.385,1.965-10.27,1.965c-9.455,0-15.096-6.277-15.096-15.539c0-9.258,5.452-16.488,14.397-16.488
			c10.082,0,12.686,8.75,12.686,14.396c0,1.141-0.066,1.965-0.189,2.604h-21.564V154.181z M287.956,150.185
			c0.066-3.488-1.453-9.006-7.732-9.006c-5.713,0-8.117,5.139-8.566,9.006H287.956z"/>
		<path fill="#DBDBD8" d="M313.356,137.815v4.252h-7.988v16.555c0,3.803,1.076,5.961,4.188,5.961c1.521,0,2.406-0.127,3.234-0.383
			l0.254,4.25c-1.082,0.383-2.791,0.762-4.949,0.762c-2.602,0-4.693-0.887-6.023-2.348c-1.521-1.711-2.158-4.439-2.158-8.053
			v-16.744h-4.754v-4.252H313.356L313.356,137.815z"/>
		<path fill="#DBDBD8" d="M339.772,161.157c0,2.662,0.123,5.264,0.441,7.354h-5.008l-0.443-3.863h-0.195
			c-1.707,2.404-5.008,4.562-9.383,4.562c-6.215,0-9.391-4.377-9.391-8.814c0-7.42,6.6-11.48,18.459-11.418v-0.635
			c0-2.475-0.697-7.104-6.977-7.041c-2.922,0-5.902,0.828-8.055,2.285l-1.271-3.744c2.537-1.584,6.279-2.662,10.146-2.662
			c9.391,0,11.674,6.406,11.674,12.492L339.772,161.157L339.772,161.157z M334.378,152.847
			c-6.092-0.127-13.004,0.951-13.004,6.916c0,3.678,2.414,5.326,5.205,5.326c4.055,0,6.656-2.537,7.543-5.139
			c0.189-0.631,0.256-1.268,0.256-1.775V152.847L334.378,152.847z"/>
		<path fill="#DBDBD8" d="M361.971,137.815l6.025,17.188c1.02,2.855,1.84,5.395,2.471,7.93h0.197
			c0.697-2.535,1.584-5.072,2.594-7.93l5.969-17.188h5.836l-12.051,30.697h-5.328l-11.672-30.697H361.971z"/>
		<path fill="#DBDBD8" d="M390.911,154.181c0.125,7.545,4.885,10.654,10.531,10.654c3.99,0,6.469-0.697,8.496-1.584l1.018,3.994
			c-1.969,0.889-5.393,1.965-10.275,1.965c-9.455,0-15.096-6.277-15.096-15.539c0-9.258,5.451-16.488,14.396-16.488
			c10.082,0,12.684,8.75,12.684,14.396c0,1.141-0.064,1.965-0.188,2.604h-21.566V154.181z M407.272,150.185
			c0.064-3.488-1.453-9.006-7.732-9.006c-5.713,0-8.119,5.139-8.568,9.006H407.272z"/>
		<path fill="#DBDBD8" d="M417.835,147.394c0-3.611-0.064-6.725-0.254-9.578h4.883l0.254,6.09h0.189
			c1.396-4.121,4.818-6.725,8.562-6.725c0.566,0,1.012,0.064,1.521,0.129v5.266c-0.568-0.127-1.145-0.127-1.898-0.127
			c-3.938,0-6.729,2.918-7.484,7.104c-0.129,0.762-0.188,1.713-0.188,2.602v16.361h-5.582v-21.119h-0.004V147.394z"/>
		<path fill="#DBDBD8" d="M436.452,162.866c1.709,1.018,4.629,2.158,7.42,2.158c3.99,0,5.896-1.965,5.896-4.564
			c0-2.666-1.586-4.061-5.643-5.582c-5.58-2.031-8.182-5.01-8.182-8.689c0-4.945,4.055-9.004,10.588-9.004
			c3.111,0,5.836,0.822,7.486,1.9l-1.33,4.062c-1.207-0.762-3.432-1.844-6.279-1.844c-3.299,0-5.072,1.902-5.072,4.188
			c0,2.537,1.773,3.682,5.771,5.266c5.262,1.967,8.053,4.629,8.053,9.197c0,5.455-4.252,9.26-11.418,9.26
			c-3.357,0-6.469-0.887-8.627-2.158L436.452,162.866z"/>
		<path fill="#DBDBD8" d="M460.128,168.513v-30.697h5.582v30.697H460.128z"/>
		<path fill="#DBDBD8" d="M500.942,152.909c0,11.354-7.924,16.303-15.285,16.303c-8.242,0-14.711-6.092-14.711-15.793
			c0-10.213,6.783-16.234,15.221-16.234C494.981,137.181,500.942,143.587,500.942,152.909z M476.651,153.229
			c0,6.723,3.809,11.797,9.26,11.797c5.328,0,9.324-5.008,9.324-11.924c0-5.199-2.604-11.734-9.193-11.734
			C479.507,141.368,476.651,147.458,476.651,153.229z"/>
		<path fill="#DBDBD8" d="M506.288,146.124c0-3.232-0.064-5.771-0.254-8.311h4.949l0.316,5.076h0.125
			c1.521-2.854,5.072-5.709,10.146-5.709c4.25,0,10.85,2.535,10.85,13.066v18.264h-5.582v-17.693c0-4.947-1.846-9.068-7.105-9.068
			c-3.611,0-6.471,2.6-7.486,5.709c-0.246,0.697-0.377,1.65-0.377,2.6v18.455h-5.582V146.124L506.288,146.124z"/>
</g>
</svg>
